<svg xmlns="http://www.w3.org/2000/svg" viewBox="0 0 466.628 404.943"><g data-name="2022"><path data-name="0" d="M168.633 184.497c-14.912-13.426-20.892-28.325-17.78-44.285 2.966-15.207 12.339-31.658 27.855-48.891 15.688-17.423 31.193-28.607 46.087-33.247 15.642-4.867 31.134-.526 46.051 12.9s20.854 28.387 17.646 44.452c-3.056 15.3-12.557 31.887-28.245 49.31-15.518 17.232-30.9 28.273-45.712 32.813a41.2 41.2 0 0 1-12.128 1.861c-11.434.003-22.751-4.985-33.774-14.913Zm67.817-98.855c-5.395.482-10.815 2.829-16.112 6.978a160.194 160.194 0 0 0-19.4 18.713 145.225 145.225 0 0 0-15.965 20.7c-3.462 5.677-5.215 11.323-5.212 16.779 0 5.095 2.568 9.877 7.839 14.627s10.3 6.8 15.367 6.269c5.425-.568 10.859-2.9 16.14-6.939a145.037 145.037 0 0 0 18.916-18.039 159.981 159.981 0 0 0 16.585-21.255c3.57-5.7 5.338-11.337 5.253-16.752-.077-5.112-2.688-9.913-7.978-14.678-4.818-4.337-9.433-6.461-14.065-6.461q-.685-.004-1.368.058Z"/><path data-name="2" d="m50.97 145.391 6.062-19.5c4.834-15.665 8.509-28.5 10.921-38.132a116.725 116.725 0 0 0 3.668-27.152c.077-8.154-1.7-15.193-5.279-20.923-3.614-5.786-7.76-9.473-12.319-10.955-4.358-1.418-9.269-.362-15.013 3.226-5.544 3.464-8.638 7.7-9.459 12.934-.852 5.434.561 11.361 4.2 17.618l1.948 3.349L10.681 81.49l-2.082-3.539C.52 64.229-1.882 51.064 1.462 38.817 4.782 26.651 12.553 16.682 24.55 9.184 37.466 1.115 50.073-1.657 62.026.948c11.989 2.612 21.857 10 29.329 21.955a59.774 59.774 0 0 1 8.9 28.652 113.606 113.606 0 0 1-2.177 29.812c-1.969 9.355-4.929 20.725-8.8 33.787l-.353 1.2 47.058-29.4 14.087 22.544-87.407 54.618ZM283.768 394.925l-4.849-19.837c-3.922-15.918-7.381-28.811-10.278-38.313a116.89 116.89 0 0 0-10.841-25.163c-4.135-7.029-9.282-12.148-15.3-15.215-6.082-3.1-11.531-4.122-16.2-3.046-4.466 1.03-8.131 4.464-11.208 10.5-2.966 5.825-3.441 11.044-1.446 15.959 2.067 5.1 6.331 9.446 12.674 12.937l3.4 1.867-13.393 26.286-3.608-1.96c-13.992-7.6-22.832-17.648-26.273-29.868-3.418-12.141-1.9-24.687 4.528-37.294 6.914-13.567 16.3-22.438 27.881-26.36 11.624-3.937 23.887-2.687 36.448 3.714a59.827 59.827 0 0 1 22.39 19.976 113.585 113.585 0 0 1 13.486 26.674c3.131 9.035 6.449 20.3 9.859 33.5l.316 1.207 25.192-49.441 23.684 12.068-46.793 91.835ZM348.231 367.149l4.213-21.664 17.732-10.127c14.218-8.16 25.658-15.038 33.994-20.44a116.821 116.821 0 0 0 21.2-17.357c5.616-5.911 9.119-12.27 10.407-18.9 1.3-6.7.784-12.219-1.537-16.413-2.221-4.01-6.531-6.587-13.18-7.88-6.418-1.247-11.566-.263-15.74 3.007-4.328 3.393-7.335 8.692-8.942 15.75l-.861 3.778-28.956-5.629.889-4.009c3.447-15.545 10.672-26.811 21.466-33.487 10.728-6.632 23.209-8.626 37.1-5.928 14.948 2.907 26.059 9.479 33.025 19.534 6.986 10.088 9.165 22.222 6.474 36.063a59.762 59.762 0 0 1-13.028 27.025 113.614 113.614 0 0 1-21.921 20.318c-7.824 5.5-17.742 11.794-29.483 18.708l-1.072.638 54.471 10.587-5.074 26.095Z"/></g></svg>
