<svg xmlns="http://www.w3.org/2000/svg" viewBox="0 0 110.081 42.375"><defs><linearGradient id="a" x1="1" y1=".398" x2="0" y2=".398" gradientUnits="objectBoundingBox"><stop offset="0" stop-color="#e01b3f"/><stop offset=".345" stop-color="#675378"/><stop offset=".509" stop-color="#1d3b7d"/><stop offset=".716" stop-color="#5e84b5"/><stop offset="1" stop-color="#539ccc"/></linearGradient></defs><path data-name="Clip 2" d="M50.129 42.375H30.698l-.843-.949-7.239-8.149v9.1H8.256V0h20.271a16.239 16.239 0 0 1 6.409 1.29V0h59.12a15.73 15.73 0 0 1 11.452 4.8 16.7 16.7 0 0 1 4.572 11.685 16.628 16.628 0 0 1-4.578 11.666 15.764 15.764 0 0 1-11.446 4.764h-5.3v9.458H74.4V13.526h-7.836v28.848H52.206V13.526h-7.88a17.951 17.951 0 0 1 .226 2.853 16.271 16.271 0 0 1-6.144 13.007l7.336 8.129 4.384 4.859Zm27.1-31.745v28.848h8.693v-9.459h8.134a12.982 12.982 0 0 0 9.434-3.907 13.719 13.719 0 0 0 3.758-9.629 13.8 13.8 0 0 0-3.758-9.655A12.949 12.949 0 0 0 94.056 2.9H37.769v3.688a12.648 12.648 0 0 0-4.113-2.71 13.5 13.5 0 0 0-5.129-.978H11.089v36.578h8.693V29.81h4.21l8.59 9.668h11.08l-9.715-10.766a12.753 12.753 0 0 0 5.631-4.794 13.882 13.882 0 0 0 2.142-7.539 14.231 14.231 0 0 0-1.178-5.749h14.5v28.848h8.693V10.63h13.5Zm15.6 11.76h-6.9V10.525h6.9a5.654 5.654 0 0 1 5.727 5.958 5.991 5.991 0 0 1-1.656 4.285 5.682 5.682 0 0 1-4.072 1.622Zm-4.073-8.97v6.074h4.07a2.768 2.768 0 0 0 2.894-3.011 2.794 2.794 0 0 0-2.894-3.063Zm-61.457 8.76h-7.517V10.525h7.517a5.719 5.719 0 0 1 4.072 1.595 5.833 5.833 0 0 1 1.655 4.259 5.521 5.521 0 0 1-5.727 5.8Zm-4.684-8.76v5.865h4.684a2.7 2.7 0 0 0 2.894-2.906 2.718 2.718 0 0 0-2.894-2.958Z" fill="none"/><path data-name="Fill 1" d="M41.873 42.374H22.441l-.843-.949-7.24-8.149v9.1H0V0h20.271a16.238 16.238 0 0 1 6.409 1.289V0H85.8a15.731 15.731 0 0 1 11.453 4.8 16.707 16.707 0 0 1 4.572 11.685 16.629 16.629 0 0 1-4.577 11.666A15.766 15.766 0 0 1 85.8 32.915h-5.3v9.458H66.144V13.525h-7.836v28.848H43.95V13.525h-7.88a17.961 17.961 0 0 1 .226 2.853 16.273 16.273 0 0 1-6.144 13.007l7.336 8.129 4.384 4.858Zm27.1-31.745v28.849h8.693v-9.459H85.8a12.982 12.982 0 0 0 9.435-3.907 13.719 13.719 0 0 0 3.759-9.629 13.8 13.8 0 0 0-3.759-9.655A12.95 12.95 0 0 0 85.8 2.9H29.513v3.688a12.644 12.644 0 0 0-4.113-2.71 13.5 13.5 0 0 0-5.129-.978H2.833v36.578h8.693V29.81h4.21l8.59 9.668h11.08l-9.715-10.766a12.754 12.754 0 0 0 5.631-4.794 13.88 13.88 0 0 0 2.142-7.538 14.237 14.237 0 0 0-1.177-5.749h14.5v28.847h8.693V10.63h13.5Zm15.6 11.76h-6.9V10.525h6.9a5.654 5.654 0 0 1 5.727 5.958 6.548 6.548 0 0 1-.442 2.422 5.477 5.477 0 0 1-1.214 1.864 5.682 5.682 0 0 1-4.072 1.621ZM80.5 13.421v6.074h4.071a2.769 2.769 0 0 0 2.895-3.011 2.794 2.794 0 0 0-2.895-3.063Zm-61.458 8.758h-7.516V10.525h7.517a5.719 5.719 0 0 1 4.072 1.595 5.834 5.834 0 0 1 1.655 4.26 5.52 5.52 0 0 1-5.727 5.8Zm-4.684-8.759v5.864h4.684a2.7 2.7 0 0 0 2.895-2.906 2.718 2.718 0 0 0-2.895-2.958Z" fill="url(#a)"/></svg>
